<svg width="90" height="90" viewBox="0 0 90 90" fill="none" xmlns="http://www.w3.org/2000/svg">
<path d="M60.4688 23.9062H56.25V21.0938C56.25 18.7674 54.3576 16.875 52.0312 16.875H37.9688C35.6424 16.875 33.75 18.7674 33.75 21.0938V23.9062H29.5312C27.2049 23.9062 25.3125 25.7986 25.3125 28.125V46.4062C25.3125 47.1828 25.9415 47.8125 26.7188 47.8125H35.1562H40.7812C41.5585 47.8125 42.1875 47.1828 42.1875 46.4062V40.7812C42.1875 40.006 42.8178 39.375 43.5938 39.375H46.4062C47.1822 39.375 47.8125 40.006 47.8125 40.7812V46.4062C47.8125 47.1828 48.4415 47.8125 49.2188 47.8125H54.8438H63.2812C64.0585 47.8125 64.6875 47.1828 64.6875 46.4062V28.125C64.6875 25.7986 62.7951 23.9062 60.4688 23.9062ZM33.75 30.9375H31.6406C31.2524 30.9375 30.9375 31.2522 30.9375 31.6406V33.0469C30.9375 33.4351 31.2524 33.75 31.6406 33.75H33.75V37.9688H31.6406C31.2524 37.9688 30.9375 38.2835 30.9375 38.6719V40.0781C30.9375 40.4664 31.2524 40.7812 31.6406 40.7812H33.75V45H28.125V28.125C28.125 27.3497 28.7553 26.7188 29.5312 26.7188H33.75V30.9375ZM43.5938 33.0469C43.5938 33.4351 43.2789 33.75 42.8906 33.75H41.4844C41.0961 33.75 40.7812 33.4351 40.7812 33.0469V31.6406C40.7812 31.2522 41.0961 30.9375 41.4844 30.9375H42.8906C43.2789 30.9375 43.5938 31.2522 43.5938 31.6406V33.0469ZM43.5938 26.0156C43.5938 26.4039 43.2789 26.7188 42.8906 26.7188H41.4844C41.0961 26.7188 40.7812 26.4039 40.7812 26.0156V24.6094C40.7812 24.221 41.0961 23.9062 41.4844 23.9062H42.8906C43.2789 23.9062 43.5938 24.221 43.5938 24.6094V26.0156ZM49.2188 33.0469C49.2188 33.4351 48.9039 33.75 48.5156 33.75H47.1094C46.7211 33.75 46.4062 33.4351 46.4062 33.0469V31.6406C46.4062 31.2522 46.7211 30.9375 47.1094 30.9375H48.5156C48.9039 30.9375 49.2188 31.2522 49.2188 31.6406V33.0469ZM49.2188 26.0156C49.2188 26.4039 48.9039 26.7188 48.5156 26.7188H47.1094C46.7211 26.7188 46.4062 26.4039 46.4062 26.0156V24.6094C46.4062 24.221 46.7211 23.9062 47.1094 23.9062H48.5156C48.9039 23.9062 49.2188 24.221 49.2188 24.6094V26.0156ZM61.875 45H56.25V40.7812H58.3594C58.7476 40.7812 59.0625 40.4664 59.0625 40.0781V38.6719C59.0625 38.2835 58.7476 37.9688 58.3594 37.9688H56.25V33.75H58.3594C58.7476 33.75 59.0625 33.4351 59.0625 33.0469V31.6406C59.0625 31.2522 58.7476 30.9375 58.3594 30.9375H56.25V26.7188H60.4688C61.2447 26.7188 61.875 27.3497 61.875 28.125V45Z" fill="#2B398B"/>
<path d="M82.9688 7.03125H7.03125C4.70489 7.03125 2.8125 8.92364 2.8125 11.25V64.6875C2.8125 67.0139 4.70489 68.9062 7.03125 68.9062H31.7187L29.2186 74.5312H60.7812L58.2812 68.9062H82.9688C85.2951 68.9062 87.1875 67.0139 87.1875 64.6875V11.25C87.1875 8.92364 85.2951 7.03125 82.9688 7.03125ZM46.4062 62.5781C46.4062 62.9664 46.0915 63.2812 45.7031 63.2812H44.2969C43.9086 63.2812 43.5938 62.9664 43.5938 62.5781V61.1719C43.5938 60.7835 43.9086 60.4688 44.2969 60.4688H45.7031C46.0915 60.4688 46.4062 60.7835 46.4062 61.1719V62.5781ZM84.375 54.8438H5.625V11.25C5.625 10.4747 6.25598 9.84375 7.03125 9.84375H82.9688C83.744 9.84375 84.375 10.4747 84.375 11.25V54.8438Z" fill="#2B398B"/>
<path d="M64.6875 82.9688H25.3125C23.7592 82.9688 22.5 81.7096 22.5 80.1562C22.5 78.6029 23.7592 77.3438 25.3125 77.3438H64.6875C66.2408 77.3438 67.5 78.6029 67.5 80.1562C67.5 81.7096 66.2408 82.9688 64.6875 82.9688Z" fill="#2B398B"/>
</svg>
